<svg width="1033" height="1683" viewBox="0 0 1033 1683" fill="none" xmlns="http://www.w3.org/2000/svg">
<path d="M381.15 793.236L380.709 792.411L380.268 793.236L195.756 1138.34L195.755 1138.34L-96.6313 1682.5H-271.166L107.533 973.31L107.533 973.309L222.98 758.301L222.982 758.297L233.048 739.959L233.178 739.721L233.05 739.482L108.883 507.741L196.637 343.961L196.637 343.961L380.707 1.05945L562.239 341.098L562.24 341.098L649.994 504.879L525.826 736.62L525.7 736.856L525.826 737.092L650.12 969.069L650.121 969.069L1031.27 1682.5H856.638L563.121 1134.1L381.15 793.236Z" stroke="#D4B882"/>
</svg>
