<?xml version="1.0" encoding="UTF-8"?><svg id="uuid-e9ee8f8a-2327-4b77-b34f-c9bee2c0c0fd" xmlns="http://www.w3.org/2000/svg" viewBox="0 0 440.8 50.2"><defs><style>.uuid-58144b3a-af64-460c-9b14-8a64d2b4c533,.uuid-4299f7dc-b2ce-4c69-8ec5-168494e87ab7{fill:#11182a;}.uuid-4299f7dc-b2ce-4c69-8ec5-168494e87ab7{stroke:#000d22;stroke-miterlimit:10;stroke-width:1.4px;}.uuid-06a27ef1-d006-4000-ac2a-dde97f3a6721{fill:#d4b882;}</style></defs><g id="uuid-d91a4084-baf0-420f-aba5-882f508b937d"><path class="uuid-58144b3a-af64-460c-9b14-8a64d2b4c533" d="m355.4,12.7v-.6c1.1,0,1.7-.3,1.7-1V2c0-1-.6-1.5-1.9-1.5v-.6h5.6v.6c-1.2,0-1.8.5-1.8,1.5v9.1c0,.5.4.8,1.2.8h.9c.6,0,1.1,0,1.5-.1.4,0,.8-.2,1.1-.4.6-.3,1.1-1.2,1.5-2.7h.5c0,0-.6,4-.6,4h-9.8Z"/><path class="uuid-58144b3a-af64-460c-9b14-8a64d2b4c533" d="m372.6,12.8c0,0,0-.3,0-.5v-.7c-.1.2-.3.4-.4.6-.2.2-.3.3-.5.4-.2.1-.5.2-.7.3-.3,0-.6,0-1,0s-.9,0-1.2-.1c-.3,0-.6-.2-.8-.5s-.4-.5-.5-.9c0-.4-.1-.8-.1-1.4v-3.9c0-.4-.4-.7-1.2-.7v-.5c0,0,2.9-.2,2.9-.2v4.9c0,.3,0,.6,0,.9,0,.3,0,.5.2.7,0,.2.3.4.5.5.2.1.5.2.9.2,1,0,1.7-.7,2.1-2v-3.9c0-.4-.5-.7-1.4-.7v-.5c0,0,3-.2,3-.2v6.4c0,.4.4.7,1.3.7l.2.5-2.9.4Z"/><path class="uuid-58144b3a-af64-460c-9b14-8a64d2b4c533" d="m380.7,12.7v-.6c.6,0,1-.1,1-.4s0-.3-.3-.5l-1.2-1.7-1.5,1.6c-.1.1-.2.2-.2.3s0,.2,0,.3c0,.2,0,.3.2.4s.4.1.8.1v.6h-3.3v-.6c.6,0,1-.2,1.5-.7l2.1-2.4-2.3-3.1c-.1-.1-.3-.2-.5-.3-.2,0-.5-.1-.6-.1v-.6h4v.6c-.6,0-.9.1-.9.4s0,.2.1.4l1.2,1.6,1.2-1.4c.2-.2.3-.5.3-.7s-.3-.4-1-.4v-.6h3.4v.6c-.6,0-1.1.2-1.5.7l-2,2.3,2.4,3.2c.3.4.7.6,1.3.6v.6h-4.2Z"/><path class="uuid-58144b3a-af64-460c-9b14-8a64d2b4c533" d="m392,12.8c0,0,0-.3,0-.5v-.7c-.1.2-.3.4-.4.6-.2.2-.3.3-.5.4-.2.1-.5.2-.7.3-.3,0-.6,0-1,0s-.9,0-1.2-.1c-.3,0-.6-.2-.8-.5s-.4-.5-.5-.9c0-.4-.1-.8-.1-1.4v-3.9c0-.4-.4-.7-1.2-.7v-.5c0,0,2.9-.2,2.9-.2v4.9c0,.3,0,.6,0,.9,0,.3,0,.5.2.7,0,.2.3.4.5.5.2.1.5.2.9.2,1,0,1.7-.7,2.1-2v-3.9c0-.4-.5-.7-1.4-.7v-.5c0,0,3-.2,3-.2v6.4c0,.4.4.7,1.3.7l.2.5-2.9.4Z"/><path class="uuid-58144b3a-af64-460c-9b14-8a64d2b4c533" d="m395.9,12.7v-.6c.8,0,1.2-.4,1.2-1.1v-4c0-.9-.4-1.4-1.3-1.4v-.5c.5-.1,1-.2,1.5-.3.5,0,1-.2,1.5-.3v1.8h0c0,0,.1-.3.3-.5.1-.2.3-.4.5-.6.2-.2.4-.4.7-.5.2-.1.5-.2.8-.2,1,0,1.5.4,1.5,1.3s-.3,1.1-.9,1.1-.8-.2-.8-.7,0-.4,0-.5h-.3c-.4,0-.7.1-.9.4-.2.2-.4.5-.5.9-.1.3-.2.7-.2,1.1,0,.4,0,.7,0,1v2.1c0,.7.5,1,1.5,1v.6h-4.3Z"/><path class="uuid-58144b3a-af64-460c-9b14-8a64d2b4c533" d="m403.6,6.2c-.2-.5-.5-.7-1.1-.7v-.6h4v.6h-.4c-.5,0-.7.1-.7.4,0,0,0,0,0,.2,0,0,0,.1,0,.2,0,0,0,.2,0,.3l2,4.2,1.5-4c0-.2,0-.4.1-.5,0-.1,0-.2,0-.3,0-.4-.4-.6-1.2-.6v-.6h3.3v.6c-.5,0-.9.2-1.1.7l-2.3,5.8c0,.1-.2.3-.3.6-.1.2-.2.5-.4.8-.2.3-.3.6-.5.9-.2.3-.4.6-.7.9-.2.3-.5.5-.8.6-.3.2-.6.2-.9.2-.7,0-1-.3-1-.9s.2-1,.7-1,.4,0,.5.2c0,.1.1.2.2.4,0,.1,0,.2.1.4,0,.1.1.2.3.2s.2,0,.4-.2c.2-.2.3-.4.5-.6.2-.2.3-.5.5-.8.1-.3.2-.6.3-.9l-3-6.4Z"/><path class="uuid-58144b3a-af64-460c-9b14-8a64d2b4c533" d="m355.4,29.7v-.6c1.1,0,1.7-.3,1.7-1v-9.1c0-1-.6-1.5-1.9-1.5v-.6h5.6v.6c-1.2,0-1.8.5-1.8,1.5v9.1c0,.5.4.8,1.2.8h.9c.6,0,1.1,0,1.5-.1.4,0,.8-.2,1.1-.4.6-.3,1.1-1.2,1.5-2.7h.5c0,0-.6,4-.6,4h-9.8Z"/><path class="uuid-58144b3a-af64-460c-9b14-8a64d2b4c533" d="m366.2,29.7v-.6c.9,0,1.3-.4,1.3-1.2v-3.8c0-1-.4-1.5-1.2-1.5v-.5l2.8-.6v6.5c0,.7.5,1.1,1.5,1.1v.6h-4.4Zm2-10.3c-.7,0-1-.4-1-1.2s.4-1.1,1.1-1.1,1,.4,1,1.1-.4,1.2-1.1,1.2Z"/><path class="uuid-58144b3a-af64-460c-9b14-8a64d2b4c533" d="m371.8,29.7v-.6c.8,0,1.2-.3,1.2-1v-5.3c0-.2,0-.2-.2-.2h-1.5v-.8h1.5c.2,0,.3-.2.3-.5,0-.7,0-1.4.2-2s.3-1.1.6-1.5c.3-.4.6-.8,1.1-1,.4-.2,1-.4,1.6-.4,1,0,1.5.4,1.5,1.3s0,.4-.2.6c-.2.2-.4.2-.6.2-.5,0-.7-.2-.7-.6s0-.4.2-.5c-.2-.2-.4-.3-.6-.3s-.5.1-.7.4c-.2.2-.3.5-.4.9-.1.3-.2.7-.2,1,0,.4,0,.7,0,.9v.9c0,.3.1.5.3.5h1.8c0,0,0,.7,0,.7h-1.7c-.2,0-.3,0-.3.2v5.3c0,.6.6,1,1.7,1v.6h-4.6Z"/><path class="uuid-58144b3a-af64-460c-9b14-8a64d2b4c533" d="m384.6,27.8c-.3.7-.8,1.3-1.3,1.7-.6.4-1.2.6-2,.6s-1.2-.1-1.7-.3c-.5-.2-.9-.5-1.2-.9-.3-.4-.6-.8-.7-1.3-.2-.5-.2-1.1-.2-1.6s0-1.1.3-1.7.4-1,.8-1.4c.3-.4.7-.7,1.2-1,.5-.2,1-.4,1.5-.4s.7,0,1.1.1.7.2,1.1.5c.3.2.6.6.9,1,.2.5.4,1.1.5,1.8,0,.2,0,.3,0,.4h-5.1c-.2,0-.4,0-.4.3,0,.5,0,.9.2,1.3.1.4.3.8.5,1.1s.5.5.8.7c.3.2.7.3,1.1.3s1-.2,1.4-.5c.4-.3.7-.7,1-1.1l.4.3Zm-2.6-3c.5,0,.8-.3.8-.8,0-.5-.2-.9-.5-1.3-.3-.4-.7-.5-1.3-.5s-.6,0-.8.2c-.2.1-.5.3-.6.5-.2.2-.3.5-.4.8,0,.3-.1.6-.1.9s.1.2.4.2h2.5Z"/><path class="uuid-58144b3a-af64-460c-9b14-8a64d2b4c533" d="m355.3,46.7v-.6c1.2,0,1.8-.4,1.8-1.3v-8.7c0-1.1-.6-1.6-1.9-1.6v-.6h10.1l.2,3.6h-.6c-.1-.6-.3-1.2-.5-1.5s-.5-.7-.8-.9c-.3-.2-.7-.3-1.1-.3-.4,0-.9,0-1.4,0h-.5c-1,0-1.5.3-1.5.9v3.4c0,.4.2.6.5.6h.7c.3,0,.6,0,.9,0,.3,0,.5-.1.7-.2.2-.1.4-.3.5-.6.1-.3.2-.7.3-1.1h.7v5h-.7c0-.5-.1-.8-.2-1.1s-.2-.5-.4-.6-.4-.2-.7-.3-.6,0-1,0h-.2c-.6,0-.9.2-.9.6v3.7c0,.7.5,1.1,1.5,1.1h.6c.8,0,1.5,0,2-.2.5-.1.9-.3,1.2-.6s.6-.6.7-1c.2-.4.4-.9.6-1.4l.5.2-.5,3.8h-10.3Z"/><path class="uuid-58144b3a-af64-460c-9b14-8a64d2b4c533" d="m371.4,46.7v-.6c.6,0,1-.1,1-.4s0-.3-.3-.5l-1.2-1.7-1.5,1.6c-.1.1-.2.2-.2.3s0,.2,0,.3c0,.2,0,.3.2.4s.4.1.8.1v.6h-3.3v-.6c.6,0,1-.2,1.5-.7l2.1-2.4-2.3-3.1c-.1-.1-.3-.2-.5-.3-.2,0-.5-.1-.6-.1v-.6h4v.6c-.6,0-.9.1-.9.4s0,.2.1.4l1.2,1.6,1.2-1.4c.2-.2.3-.5.3-.7s-.3-.4-1-.4v-.6h3.4v.6c-.6,0-1.1.2-1.5.7l-2,2.3,2.4,3.2c.3.4.7.6,1.3.6v.6h-4.2Z"/><path class="uuid-58144b3a-af64-460c-9b14-8a64d2b4c533" d="m376.2,50.2v-.5c.7,0,1-.2,1-.6v-8.5c0-.6-.4-.9-1.2-.9v-.4l2.7-.9c0,.1,0,.3,0,.6v.9c.2-.5.6-.9,1.1-1.2.5-.2.9-.4,1.4-.4s1.2.1,1.6.4c.4.3.8.6,1.1,1,.3.4.5.8.6,1.3.1.5.2.9.2,1.2,0,.6,0,1.1-.2,1.6-.2.5-.4,1-.7,1.4-.3.4-.7.7-1.1,1-.4.3-.9.4-1.5.4-.6,0-1.1,0-1.5-.2-.4-.1-.7-.3-.9-.6h0c0,.2,0,.4,0,.8v2.1c0,.4.5.7,1.5.7v.5h-4.2Zm2.7-6.8c0,.4,0,.7.2,1.1,0,.3.2.6.4.9.2.2.4.4.6.6.3.1.6.2,1,.2s.7,0,1-.3c.3-.2.5-.4.7-.7.2-.3.3-.6.4-1s.1-.8.1-1.2,0-.8-.2-1.2-.3-.8-.5-1.1c-.2-.3-.5-.6-.8-.8-.3-.2-.7-.3-1.1-.3s-.8.1-1.1.4c-.3.2-.4.5-.6.8-.1.3-.2.6-.2,1,0,.3,0,.5,0,.7v1Z"/><path class="uuid-58144b3a-af64-460c-9b14-8a64d2b4c533" d="m393,44.8c-.3.7-.8,1.3-1.3,1.7-.6.4-1.2.6-2,.6s-1.2-.1-1.7-.3c-.5-.2-.9-.5-1.2-.9-.3-.4-.6-.8-.7-1.3-.2-.5-.2-1.1-.2-1.6s0-1.1.3-1.7.4-1,.8-1.4c.3-.4.7-.7,1.2-1,.5-.2,1-.4,1.5-.4s.7,0,1.1.1.7.2,1.1.5c.3.2.6.6.9,1,.2.5.4,1.1.5,1.8,0,.2,0,.3,0,.4h-5.1c-.2,0-.4,0-.4.3,0,.5,0,.9.2,1.3.1.4.3.8.5,1.1s.5.5.8.7c.3.2.7.3,1.1.3s1-.2,1.4-.5c.4-.3.7-.7,1-1.1l.4.3Zm-2.6-3c.5,0,.8-.3.8-.8,0-.5-.2-.9-.5-1.3-.3-.4-.7-.5-1.3-.5s-.6,0-.8.2c-.2.1-.5.3-.6.5-.2.2-.3.5-.4.8,0,.3-.1.6-.1.9s.1.2.4.2h2.5Z"/><path class="uuid-58144b3a-af64-460c-9b14-8a64d2b4c533" d="m394.2,46.7v-.6c.8,0,1.2-.4,1.2-1.1v-4c0-.9-.4-1.4-1.3-1.4v-.5c.5-.1,1-.2,1.5-.3.5,0,1-.2,1.5-.3v1.8h0c0,0,.1-.3.3-.5.1-.2.3-.4.5-.6.2-.2.4-.4.7-.5.2-.1.5-.2.8-.2,1,0,1.5.4,1.5,1.3s-.3,1.1-.9,1.1-.8-.2-.8-.7,0-.4,0-.5h-.3c-.4,0-.7.1-.9.4-.2.2-.4.5-.5.9-.1.3-.2.7-.2,1.1,0,.4,0,.7,0,1v2.1c0,.7.5,1,1.5,1v.6h-4.3Z"/><path class="uuid-58144b3a-af64-460c-9b14-8a64d2b4c533" d="m401.5,46.7v-.6c.9,0,1.3-.4,1.3-1.2v-3.8c0-1-.4-1.5-1.2-1.5v-.5l2.8-.6v6.5c0,.7.5,1.1,1.5,1.1v.6h-4.4Zm2-10.3c-.7,0-1-.4-1-1.2s.4-1.1,1.1-1.1,1,.4,1,1.1-.4,1.2-1.1,1.2Z"/><path class="uuid-58144b3a-af64-460c-9b14-8a64d2b4c533" d="m414.2,44.8c-.3.7-.8,1.3-1.3,1.7-.6.4-1.2.6-2,.6s-1.2-.1-1.7-.3c-.5-.2-.9-.5-1.2-.9-.3-.4-.6-.8-.7-1.3-.2-.5-.2-1.1-.2-1.6s0-1.1.3-1.7.4-1,.8-1.4c.3-.4.7-.7,1.2-1,.5-.2,1-.4,1.5-.4s.7,0,1.1.1.7.2,1.1.5c.3.2.6.6.9,1,.2.5.4,1.1.5,1.8,0,.2,0,.3,0,.4h-5.1c-.2,0-.4,0-.4.3,0,.5,0,.9.2,1.3.1.4.3.8.5,1.1s.5.5.8.7c.3.2.7.3,1.1.3s1-.2,1.4-.5c.4-.3.7-.7,1-1.1l.4.3Zm-2.6-3c.5,0,.8-.3.8-.8,0-.5-.2-.9-.5-1.3-.3-.4-.7-.5-1.3-.5s-.6,0-.8.2c-.2.1-.5.3-.6.5-.2.2-.3.5-.4.8,0,.3-.1.6-.1.9s.1.2.4.2h2.5Z"/><path class="uuid-58144b3a-af64-460c-9b14-8a64d2b4c533" d="m420.7,46.7v-.6c.8,0,1.2-.3,1.2-.8v-3.2c0-1.8-.6-2.6-1.9-2.6s-1.9.8-1.9,2.3v3.4c0,.5.5.8,1.4.8v.6h-4.1v-.6c.7,0,1.1-.3,1.1-.9v-4.9c0-.4-.3-.7-1-.7h-.3v-.5l2.8-.7c0,0,0,.2,0,.4v1.2c.1-.2.2-.4.4-.6.2-.2.4-.3.6-.5.2-.1.5-.3.8-.3s.7-.1,1.1-.1.5,0,.8.1c.3,0,.6.2.8.5.3.2.5.5.7.8s.3.7.3,1.2v4.2c0,.5.4.7,1.2.7v.6h-4.1Z"/><path class="uuid-58144b3a-af64-460c-9b14-8a64d2b4c533" d="m432.9,45.1c-.1.3-.3.6-.6.9-.2.2-.5.5-.8.6-.3.2-.6.3-1,.4-.3,0-.7.1-1,.1-.6,0-1.1-.1-1.5-.3-.4-.2-.8-.5-1.1-.9s-.5-.8-.7-1.3-.2-1-.2-1.6,0-1.2.3-1.7c.2-.5.4-1,.8-1.4s.8-.7,1.3-1,1.2-.4,1.9-.4.6,0,.9.1c.3,0,.6.2.8.4s.4.4.6.6c.1.2.2.5.2.7s-.1.5-.3.7c-.2.2-.5.3-.7.3-.5,0-.8-.3-.8-.9s0-.1,0-.3c0-.1,0-.2,0-.3,0-.3-.1-.4-.4-.6-.2-.1-.5-.2-.7-.2-.4,0-.7,0-1,.3-.3.2-.5.5-.7.8-.2.3-.3.7-.4,1.1s-.1.8-.1,1.1c0,.5,0,1,.2,1.4s.3.8.5,1.2c.2.3.5.6.8.8.3.2.7.3,1.2.3.9,0,1.5-.4,2.1-1.2l.5.3Z"/><path class="uuid-58144b3a-af64-460c-9b14-8a64d2b4c533" d="m440.8,44.8c-.3.7-.8,1.3-1.3,1.7-.6.4-1.2.6-2,.6s-1.2-.1-1.7-.3c-.5-.2-.9-.5-1.2-.9-.3-.4-.6-.8-.7-1.3-.2-.5-.2-1.1-.2-1.6s0-1.1.3-1.7.4-1,.8-1.4c.3-.4.7-.7,1.2-1,.5-.2,1-.4,1.5-.4s.7,0,1.1.1.7.2,1.1.5c.3.2.6.6.9,1,.2.5.4,1.1.5,1.8,0,.2,0,.3,0,.4h-5.1c-.2,0-.4,0-.4.3,0,.5,0,.9.2,1.3.1.4.3.8.5,1.1s.5.5.8.7c.3.2.7.3,1.1.3s1-.2,1.4-.5c.4-.3.7-.7,1-1.1l.4.3Zm-2.6-3c.5,0,.8-.3.8-.8,0-.5-.2-.9-.5-1.3-.3-.4-.7-.5-1.3-.5s-.6,0-.8.2c-.2.1-.5.3-.6.5-.2.2-.3.5-.4.8,0,.3-.1.6-.1.9s.1.2.4.2h2.5Z"/><polygon class="uuid-58144b3a-af64-460c-9b14-8a64d2b4c533" points="286.1 19.4 283.6 23.5 269.4 0 274.4 0 286.1 19.4"/><polygon class="uuid-58144b3a-af64-460c-9b14-8a64d2b4c533" points="289.5 13.6 287.1 17.7 276.4 0 281.3 0 289.5 13.6"/><polygon class="uuid-58144b3a-af64-460c-9b14-8a64d2b4c533" points="294.7 24.8 299.8 33.3 294.6 41.8 289.5 33.4 294.7 24.8"/><polygon class="uuid-58144b3a-af64-460c-9b14-8a64d2b4c533" points="312.9 0 302.3 17.6 299.8 13.6 308 0 312.9 0"/><polygon class="uuid-58144b3a-af64-460c-9b14-8a64d2b4c533" points="319.9 0 305.7 23.4 303.3 19.3 314.9 0 319.9 0"/><path class="uuid-58144b3a-af64-460c-9b14-8a64d2b4c533" d="m0,46.9V0h10v38.1h22.8v8.8H0Z"/><path class="uuid-58144b3a-af64-460c-9b14-8a64d2b4c533" d="m123.9,46.9V0h10v38.1h22.8v8.8h-32.8Z"/><path class="uuid-58144b3a-af64-460c-9b14-8a64d2b4c533" d="m85.7,0v27.8c0,6.5-3.6,11-10.8,11s-10.8-4.5-10.8-11V0h-10.1v28.1c0,11.7,6.7,19.6,20.9,19.6s20.9-7.9,20.9-19.6V0h-10.1Z"/><path class="uuid-58144b3a-af64-460c-9b14-8a64d2b4c533" d="m179.4,46.9V0h10v46.9h-10Z"/><path class="uuid-58144b3a-af64-460c-9b14-8a64d2b4c533" d="m217.5,46.9V0h33.2v8.6h-23.2v10.2h22.7v8.6h-22.7v10.9h23.2v8.7h-33.2Z"/><polygon class="uuid-06a27ef1-d006-4000-ac2a-dde97f3a6721" points="286.1 27.6 274.4 46.9 269.5 46.9 283.6 23.5 286.1 19.4 288.5 23.5 286.1 27.6"/><polygon class="uuid-06a27ef1-d006-4000-ac2a-dde97f3a6721" points="312.9 46.9 308 46.9 299.8 33.3 294.7 24.8 289.5 33.4 281.3 46.9 276.4 46.9 287 29.3 290.3 23.9 290.6 23.5 287.1 17.7 289.5 13.6 294.7 5.1 299.8 13.6 302.3 17.6 298.8 23.4 302.3 29.2 312.9 46.9"/><polygon class="uuid-06a27ef1-d006-4000-ac2a-dde97f3a6721" points="319.9 46.9 315 46.9 303.3 27.5 300.8 23.4 303.3 19.3 305.7 23.4 319.9 46.9"/><line class="uuid-4299f7dc-b2ce-4c69-8ec5-168494e87ab7" x1="343.4" x2="343.4" y2="46.9"/></g></svg>